<svg width="56" height="60" viewBox="0 0 56 60" fill="none" xmlns="http://www.w3.org/2000/svg">
<path fill-rule="evenodd" clip-rule="evenodd" d="M39.9931 51.0714C36.5995 53.1613 32.6247 54.3961 28.374 54.3961C24.1547 54.3961 20.2405 53.1926 16.8469 51.1354L11.1893 53.8897C15.9292 57.7208 21.8919 60 28.374 60C34.8875 60 40.8805 57.6895 45.6192 53.8583L39.9931 51.0714ZM10.6606 8.50769C5.60743 12.8092 2.00885 18.8857 0.823303 25.8366L5.3489 20.8972L7.21457 22.7024C8.71339 18.5855 11.2813 15.0075 14.6144 12.3799L13.5453 11.2825C17.8018 8.35695 22.9237 6.64938 28.4357 6.64938C33.9291 6.64938 39.0358 8.3461 43.2842 11.2837L42.2256 12.3799C45.4981 15.0075 48.066 18.5228 49.5648 22.5746L51.8276 21.1191L55.9852 25.6786C54.7426 18.8351 51.186 12.8019 46.1782 8.53422L48.0043 6.61803C42.5004 2.4697 35.7435 0 28.4054 0C21.0662 0 14.3081 2.43835 8.80423 6.58547L10.6606 8.50769Z" fill="#EE3D48"/>
</svg>
